<svg width="14" height="14" viewBox="0 0 14 14" fill="none" xmlns="http://www.w3.org/2000/svg">
<path d="M13.3636 3.8185H11.4303L12.0686 1.43785C12.1596 1.09865 11.9585 0.749321 11.6187 0.658317C11.2789 0.567314 10.9295 0.769013 10.8392 1.10821L10.1131 3.8185H5.59362L6.23193 1.43785C6.32293 1.09865 6.12181 0.749321 5.78204 0.658317C5.44214 0.568013 5.09351 0.769013 5.00309 1.10821L4.27634 3.8185H1.90909C1.55778 3.8185 1.27277 4.10293 1.27277 4.45483C1.27277 4.80684 1.55778 5.09127 1.90909 5.09127H3.93459L2.91071 8.90945H0.636325C0.285129 8.90945 0 9.19388 0 9.54577C0 9.89767 0.285129 10.1821 0.636325 10.1821H2.56965L1.93135 12.5628C1.84034 12.9019 2.04146 13.2513 2.38124 13.3423C2.436 13.357 2.49135 13.364 2.54542 13.364C2.82612 13.364 3.08386 13.1768 3.1596 12.8924L3.88693 10.1821H8.40634L7.76803 12.5628C7.67715 12.9019 7.87815 13.2513 8.21804 13.3423C8.27269 13.357 8.32804 13.364 8.3828 13.364C8.6635 13.364 8.92113 13.1768 8.99687 12.8924L9.72362 10.1821H12.0909C12.4422 10.1821 12.7273 9.89767 12.7273 9.54577C12.7273 9.19388 12.4422 8.90945 12.0909 8.90945H10.0654L11.0892 5.09127H13.3636C13.7149 5.09127 14 4.80684 14 4.45483C14 4.10293 13.7149 3.8185 13.3636 3.8185V3.8185ZM8.7474 8.90945H4.22799L5.25186 5.09127H9.77139L8.7474 8.90945Z" fill="#356666"/>
</svg>
