<svg width="380" height="95" viewBox="0 0 380 95" fill="none" xmlns="http://www.w3.org/2000/svg">
<path d="M47.5792 39L47.6892 50H43.3442L43.5642 39.385L43.5092 34.105L33.7192 34.05L24.7542 34.105L24.6992 39L24.8642 50H20.5192L20.6842 39.385L20.5192 14.745H24.9192L24.7542 30.365L34.1042 30.42L43.5092 30.365L43.3442 14.745H47.7992L47.5792 39ZM81.8769 50H77.3669L76.5419 46.48L74.5619 40.43L66.6419 40.265L59.4919 40.43L57.3469 46.26L56.4669 50H52.0669L64.9919 14.745H70.1069L81.8769 50ZM73.3519 36.69L67.6319 19.31H67.2469L60.8669 36.69L67.0269 36.8L73.3519 36.69ZM98.4018 14.47C102.105 14.47 105.313 15.35 108.027 17.11L107.147 21.125L106.652 21.235C104.195 19.1817 101.372 18.155 98.1818 18.155C94.6985 18.155 92.0218 19.365 90.1518 21.785C88.2818 24.1683 87.3468 27.67 87.3468 32.29C87.3468 36.9467 88.2818 40.5033 90.1518 42.96C92.0218 45.4167 94.6618 46.645 98.0718 46.645C99.6851 46.645 101.28 46.3517 102.857 45.765C104.47 45.1783 105.937 44.3533 107.257 43.29L107.807 43.565L107.422 47.745C104.232 49.505 100.987 50.385 97.6868 50.385C92.9568 50.385 89.2901 48.8633 86.6868 45.82C84.0835 42.74 82.7818 38.3583 82.7818 32.675C82.7818 26.845 84.1385 22.3533 86.8518 19.2C89.5651 16.0467 93.4151 14.47 98.4018 14.47ZM116.966 39L117.131 50H112.786L112.951 39.385L112.786 14.745H117.186L116.966 39ZM122.411 31.3C127.288 37.6067 132.384 43.5283 137.701 49.065L137.646 49.615C136.546 49.945 135.171 50.2383 133.521 50.495L132.971 50.22C127.178 43.6567 122.118 37.4233 117.791 31.52V31.19L129.561 17.825L131.761 14.745H136.711L122.411 31.3ZM166.03 39.715L166.14 50H161.795L162.015 39.715L161.96 37.405L150.795 14.745H155.525L156.24 16.725L163.94 32.565H164.325L172.795 16.835L173.62 14.745H178.24L166.085 37.24L166.03 39.715ZM193.373 14.415C198.213 14.415 201.916 15.9 204.483 18.87C207.086 21.84 208.388 26.1117 208.388 31.685C208.388 37.6983 207.013 42.3367 204.263 45.6C201.513 48.8267 197.59 50.44 192.493 50.44C187.726 50.44 184.041 48.9 181.438 45.82C178.871 42.74 177.588 38.3583 177.588 32.675C177.588 26.8083 178.945 22.2983 181.658 19.145C184.408 15.9917 188.313 14.415 193.373 14.415ZM193.098 17.99C185.765 17.99 182.098 22.72 182.098 32.18C182.098 37.2033 182.978 40.925 184.738 43.345C186.535 45.765 189.23 46.975 192.823 46.975C200.156 46.975 203.823 42.1533 203.823 32.51C203.823 27.5967 202.925 23.9483 201.128 21.565C199.368 19.1817 196.691 17.99 193.098 17.99ZM239.065 32.675L239.01 36.635C239.083 40.9617 237.947 44.335 235.6 46.755C233.253 49.175 229.917 50.385 225.59 50.385C221.447 50.385 218.257 49.23 216.02 46.92C213.82 44.61 212.757 41.3467 212.83 37.13L212.885 32.345L212.83 14.745H217.175L217.01 36.58C216.973 39.88 217.707 42.3733 219.21 44.06C220.713 45.71 222.95 46.535 225.92 46.535C228.89 46.535 231.145 45.7467 232.685 44.17C234.225 42.5933 234.977 40.2467 234.94 37.13L234.72 14.745H239.12L239.065 32.675ZM261.009 35.755C263.429 39.7517 266.472 44.1517 270.139 48.955L270.084 49.505C268.764 50.0183 267.407 50.3483 266.014 50.495L265.409 50.11C262.402 45.6 259.707 41.2 257.324 36.91H250.889V39L251.109 50H246.654L246.929 39.385L246.654 14.745L257.434 14.69C260.881 14.69 263.539 15.57 265.409 17.33C267.316 19.0533 268.269 21.5283 268.269 24.755C268.269 27.175 267.627 29.3567 266.344 31.3C265.097 33.2067 263.319 34.6917 261.009 35.755ZM250.944 33.17L257.544 33.335C261.651 32.1617 263.704 29.43 263.704 25.14C263.704 22.9033 263.099 21.235 261.889 20.135C260.679 18.9983 258.864 18.3933 256.444 18.32L251.109 18.485L250.944 33.17ZM285.082 14.47C287.612 14.47 290.233 15.02 292.947 16.12L292.232 20.355L291.462 20.575C290.398 19.7683 289.262 19.145 288.052 18.705C286.878 18.265 285.705 18.045 284.532 18.045C283.175 18.045 281.983 18.32 280.957 18.87C279.967 19.42 279.197 20.135 278.647 21.015C278.133 21.895 277.877 22.8117 277.877 23.765C277.877 24.755 278.17 25.635 278.757 26.405C279.38 27.1383 280.15 27.78 281.067 28.33C281.983 28.88 283.23 29.54 284.807 30.31C286.787 31.2267 288.382 32.0883 289.592 32.895C290.802 33.665 291.828 34.655 292.672 35.865C293.552 37.075 293.992 38.5417 293.992 40.265C293.992 42.0983 293.497 43.785 292.507 45.325C291.517 46.865 290.123 48.0933 288.327 49.01C286.53 49.9267 284.477 50.385 282.167 50.385C280.627 50.385 279.013 50.1833 277.327 49.78C275.677 49.34 274.137 48.7167 272.707 47.91L273.257 43.4L273.862 43.125C275.145 44.3717 276.557 45.3067 278.097 45.93C279.673 46.5167 281.177 46.81 282.607 46.81C284 46.81 285.228 46.535 286.292 45.985C287.392 45.435 288.217 44.7017 288.767 43.785C289.353 42.8683 289.647 41.8967 289.647 40.87C289.647 39.33 289.06 38.1017 287.887 37.185C286.713 36.2317 284.935 35.205 282.552 34.105C280.608 33.1517 279.05 32.3083 277.877 31.575C276.703 30.805 275.695 29.8333 274.852 28.66C274.008 27.45 273.587 25.9833 273.587 24.26C273.587 22.4633 274.063 20.8133 275.017 19.31C276.007 17.8067 277.363 16.6333 279.087 15.79C280.847 14.91 282.845 14.47 285.082 14.47ZM319.934 46.59L319.604 50H299.804L300.079 39.385L299.804 14.745H319.659L319.879 15.185L319.549 18.595L311.244 18.43L304.259 18.54L304.149 30.09L310.749 30.2L316.579 30.035L316.909 30.42L316.524 33.83L310.364 33.72L304.094 33.775L304.039 39L304.204 46.315L311.189 46.37L319.659 46.15L319.934 46.59ZM342.287 46.7L341.902 50H324.522L324.797 39.385L324.522 14.745H329.032L328.757 39L328.922 46.315H341.957L342.287 46.7ZM350.373 18.54L350.263 30.805L356.203 30.915L361.923 30.75L362.253 31.19L361.868 34.545L355.763 34.38L350.208 34.435L350.153 39L350.373 50H345.918L346.193 39.385L345.918 14.745H364.673L365.003 15.185L364.618 18.705L356.533 18.43L350.373 18.54Z" fill="#FFFFEB"/>
<path d="M47.5792 39L46.5793 38.9909L46.5792 39.0005L46.5793 39.01L47.5792 39ZM47.6892 50V51H48.6993L48.6892 49.99L47.6892 50ZM43.3442 50L42.3444 49.9793L42.3233 51H43.3442V50ZM43.5642 39.385L44.564 39.4057L44.5643 39.3902L44.5642 39.3746L43.5642 39.385ZM43.5092 34.105L44.5092 34.0946L44.4989 33.1105L43.5148 33.105L43.5092 34.105ZM33.7192 34.05L33.7248 33.0499L33.7131 33.05L33.7192 34.05ZM24.7542 34.105L24.7481 33.105L23.7653 33.111L23.7543 34.0938L24.7542 34.105ZM24.6992 39L23.6993 38.9888L23.6991 39.0019L23.6993 39.015L24.6992 39ZM24.8642 50V51H25.8793L25.8641 49.985L24.8642 50ZM20.5192 50L19.5193 49.9845L19.5035 51H20.5192V50ZM20.6842 39.385L21.6841 39.4005L21.6843 39.3894L21.6842 39.3783L20.6842 39.385ZM20.5192 14.745V13.745H19.5125L19.5192 14.7517L20.5192 14.745ZM24.9192 14.745L25.9192 14.7556L25.9298 13.745H24.9192V14.745ZM24.7542 30.365L23.7543 30.3544L23.7437 31.3591L24.7483 31.365L24.7542 30.365ZM34.1042 30.42L34.0983 31.4201L34.1101 31.42L34.1042 30.42ZM43.5092 30.365L43.5151 31.365L44.5198 31.3591L44.5092 30.3544L43.5092 30.365ZM43.3442 14.745V13.745H42.3336L42.3443 14.7556L43.3442 14.745ZM47.7992 14.745L48.7992 14.7541L48.8083 13.745H47.7992V14.745ZM46.5793 39.01L46.6893 50.01L48.6892 49.99L48.5792 38.99L46.5793 39.01ZM47.6892 49H43.3442V51H47.6892V49ZM44.344 50.0207L44.564 39.4057L42.5644 39.3643L42.3444 49.9793L44.344 50.0207ZM44.5642 39.3746L44.5092 34.0946L42.5093 34.1154L42.5643 39.3954L44.5642 39.3746ZM43.5148 33.105L33.7248 33.05L33.7136 35.05L43.5036 35.105L43.5148 33.105ZM33.7131 33.05L24.7481 33.105L24.7603 35.105L33.7253 35.05L33.7131 33.05ZM23.7543 34.0938L23.6993 38.9888L25.6991 39.0112L25.7541 34.1162L23.7543 34.0938ZM23.6993 39.015L23.8643 50.015L25.8641 49.985L25.6991 38.985L23.6993 39.015ZM24.8642 49H20.5192V51H24.8642V49ZM21.5191 50.0155L21.6841 39.4005L19.6843 39.3695L19.5193 49.9845L21.5191 50.0155ZM21.6842 39.3783L21.5192 14.7383L19.5192 14.7517L19.6842 39.3917L21.6842 39.3783ZM20.5192 15.745H24.9192V13.745H20.5192V15.745ZM23.9193 14.7344L23.7543 30.3544L25.7542 30.3756L25.9192 14.7556L23.9193 14.7344ZM24.7483 31.365L34.0983 31.42L34.1101 29.42L24.7601 29.365L24.7483 31.365ZM34.1101 31.42L43.5151 31.365L43.5034 29.365L34.0984 29.42L34.1101 31.42ZM44.5092 30.3544L44.3442 14.7344L42.3443 14.7556L42.5093 30.3756L44.5092 30.3544ZM43.3442 15.745H47.7992V13.745H43.3442V15.745ZM46.7993 14.7359L46.5793 38.9909L48.5792 39.0091L48.7992 14.7541L46.7993 14.7359ZM81.8769 50V51H83.265L82.8254 49.6833L81.8769 50ZM77.3669 50L76.3933 50.2282L76.5741 51H77.3669V50ZM76.5419 46.48L77.5155 46.2518L77.5057 46.2099L77.4923 46.169L76.5419 46.48ZM74.5619 40.43L75.5123 40.119L75.2917 39.445L74.5827 39.4302L74.5619 40.43ZM66.6419 40.265L66.6627 39.2652L66.6407 39.2648L66.6188 39.2653L66.6419 40.265ZM59.4919 40.43L59.4688 39.4303L58.7884 39.446L58.5534 40.0847L59.4919 40.43ZM57.3469 46.26L56.4084 45.9147L56.3874 45.9718L56.3735 46.031L57.3469 46.26ZM56.4669 50V51H57.2589L57.4403 50.229L56.4669 50ZM52.0669 50L51.128 49.6558L50.6352 51H52.0669V50ZM64.9919 14.745V13.745H64.2934L64.053 14.4008L64.9919 14.745ZM70.1069 14.745L71.0554 14.4283L70.8273 13.745H70.1069V14.745ZM73.3519 36.69L73.3693 37.6898L74.7259 37.6663L74.3017 36.3774L73.3519 36.69ZM67.6319 19.31L68.5817 18.9974L68.3555 18.31H67.6319V19.31ZM67.2469 19.31V18.31H66.5487L66.3081 18.9654L67.2469 19.31ZM60.8669 36.69L59.9281 36.3454L59.4438 37.6647L60.849 37.6898L60.8669 36.69ZM67.0269 36.8L67.009 37.7998L67.0266 37.8002L67.0443 37.7998L67.0269 36.8ZM81.8769 49H77.3669V51H81.8769V49ZM78.3405 49.7718L77.5155 46.2518L75.5683 46.7082L76.3933 50.2282L78.3405 49.7718ZM77.4923 46.169L75.5123 40.119L73.6115 40.741L75.5915 46.791L77.4923 46.169ZM74.5827 39.4302L66.6627 39.2652L66.621 41.2648L74.541 41.4298L74.5827 39.4302ZM66.6188 39.2653L59.4688 39.4303L59.5149 41.4297L66.6649 41.2647L66.6188 39.2653ZM58.5534 40.0847L56.4084 45.9147L58.2854 46.6053L60.4304 40.7753L58.5534 40.0847ZM56.3735 46.031L55.4935 49.771L57.4403 50.229L58.3203 46.489L56.3735 46.031ZM56.4669 49H52.0669V51H56.4669V49ZM53.0058 50.3442L65.9308 15.0892L64.053 14.4008L51.128 49.6558L53.0058 50.3442ZM64.9919 15.745H70.1069V13.745H64.9919V15.745ZM69.1583 15.0617L80.9283 50.3167L82.8254 49.6833L71.0554 14.4283L69.1583 15.0617ZM74.3017 36.3774L68.5817 18.9974L66.682 19.6226L72.402 37.0026L74.3017 36.3774ZM67.6319 18.31H67.2469V20.31H67.6319V18.31ZM66.3081 18.9654L59.9281 36.3454L61.8056 37.0346L68.1856 19.6546L66.3081 18.9654ZM60.849 37.6898L67.009 37.7998L67.0447 35.8002L60.8847 35.6902L60.849 37.6898ZM67.0443 37.7998L73.3693 37.6898L73.3345 35.6902L67.0095 35.8002L67.0443 37.7998ZM108.027 17.11L109.004 17.3241L109.152 16.6478L108.571 16.271L108.027 17.11ZM107.147 21.125L107.364 22.1012L107.987 21.9627L108.124 21.3391L107.147 21.125ZM106.652 21.235L106.01 22.0023L106.388 22.318L106.869 22.2112L106.652 21.235ZM90.1518 21.785L90.9385 22.4023L90.9431 22.3964L90.1518 21.785ZM102.857 45.765L102.515 44.8252L102.508 44.8278L102.857 45.765ZM107.257 43.29L107.704 42.3956L107.13 42.1084L106.629 42.5112L107.257 43.29ZM107.807 43.565L108.803 43.6567L108.865 42.9762L108.254 42.6706L107.807 43.565ZM107.422 47.745L107.905 48.6206L108.369 48.3645L108.418 47.8367L107.422 47.745ZM86.6868 45.82L85.923 46.4655L85.9269 46.47L86.6868 45.82ZM86.8518 19.2L87.6098 19.8522L87.6098 19.8522L86.8518 19.2ZM98.4018 15.47C101.941 15.47 104.954 16.3087 107.483 17.949L108.571 16.271C105.673 14.3913 102.27 13.47 98.4018 13.47V15.47ZM107.05 16.8959L106.17 20.9109L108.124 21.3391L109.004 17.3241L107.05 16.8959ZM106.93 20.1488L106.435 20.2588L106.869 22.2112L107.364 22.1012L106.93 20.1488ZM107.293 20.4677C104.657 18.2646 101.607 17.155 98.1818 17.155V19.155C101.136 19.155 103.733 20.0987 106.01 22.0023L107.293 20.4677ZM98.1818 17.155C94.4377 17.155 91.4479 18.4722 89.3605 21.1736L90.9431 22.3964C92.5957 20.2578 94.9592 19.155 98.1818 19.155V17.155ZM89.365 21.1677C87.301 23.7984 86.3468 27.5577 86.3468 32.29H88.3468C88.3468 27.7823 89.2626 24.5383 90.9385 22.4023L89.365 21.1677ZM86.3468 32.29C86.3468 37.0598 87.3013 40.8663 89.3561 43.5657L90.9475 42.3543C89.2623 40.1404 88.3468 36.8335 88.3468 32.29H86.3468ZM89.3561 43.5657C91.4368 46.2992 94.387 47.645 98.0718 47.645V45.645C94.9365 45.645 92.6067 44.5341 90.9475 42.3543L89.3561 43.5657ZM98.0718 47.645C99.8092 47.645 101.522 47.3286 103.206 46.7022L102.508 44.8278C101.038 45.3747 99.561 45.645 98.0718 45.645V47.645ZM103.199 46.7048C104.914 46.081 106.477 45.202 107.884 44.0688L106.629 42.5112C105.396 43.5047 104.026 44.2757 102.515 44.8252L103.199 46.7048ZM106.81 44.1844L107.36 44.4594L108.254 42.6706L107.704 42.3956L106.81 44.1844ZM106.811 43.4733L106.426 47.6533L108.418 47.8367L108.803 43.6567L106.811 43.4733ZM106.939 46.8694C103.881 48.5565 100.801 49.385 97.6868 49.385V51.385C101.173 51.385 104.583 50.4535 107.905 48.6206L106.939 46.8694ZM97.6868 49.385C93.1907 49.385 89.8251 47.9504 87.4467 45.17L85.9269 46.47C88.7551 49.7763 92.7229 51.385 97.6868 51.385V49.385ZM87.4505 45.1745C85.0518 42.3365 83.7818 38.2176 83.7818 32.675H81.7818C81.7818 38.4991 83.1151 43.1435 85.9231 46.4655L87.4505 45.1745ZM83.7818 32.675C83.7818 26.989 85.1052 22.763 87.6098 19.8522L86.0938 18.5478C83.1717 21.9437 81.7818 26.701 81.7818 32.675H83.7818ZM87.6098 19.8522C90.0953 16.9637 93.6429 15.47 98.4018 15.47V13.47C93.1874 13.47 89.0349 15.1297 86.0938 18.5478L87.6098 19.8522ZM116.966 39L115.966 38.9909L115.966 39.003L115.966 39.015L116.966 39ZM117.131 50V51H118.146L118.131 49.985L117.131 50ZM112.786 50L111.786 49.9845L111.77 51H112.786V50ZM112.951 39.385L113.951 39.4005L113.951 39.3894L113.951 39.3783L112.951 39.385ZM112.786 14.745V13.745H111.779L111.786 14.7517L112.786 14.745ZM117.186 14.745L118.186 14.7541L118.195 13.745H117.186V14.745ZM122.411 31.3L121.654 30.6463L121.12 31.265L121.62 31.9117L122.411 31.3ZM137.701 49.065L138.696 49.1645L138.742 48.7053L138.422 48.3724L137.701 49.065ZM137.646 49.615L137.933 50.5728L138.574 50.3805L138.641 49.7145L137.646 49.615ZM133.521 50.495L133.074 51.3894L133.359 51.5322L133.675 51.4831L133.521 50.495ZM132.971 50.22L132.221 50.8818L132.35 51.0275L132.524 51.1144L132.971 50.22ZM117.791 31.52H116.791V31.8472L116.984 32.1111L117.791 31.52ZM117.791 31.19L117.041 30.5291L116.791 30.8124V31.19H117.791ZM129.561 17.825L130.311 18.4859L130.345 18.4477L130.375 18.4062L129.561 17.825ZM131.761 14.745V13.745H131.246L130.947 14.1638L131.761 14.745ZM136.711 14.745L137.468 15.3987L138.896 13.745H136.711V14.745ZM115.966 39.015L116.131 50.015L118.131 49.985L117.966 38.985L115.966 39.015ZM117.131 49H112.786V51H117.131V49ZM113.786 50.0155L113.951 39.4005L111.951 39.3695L111.786 49.9845L113.786 50.0155ZM113.951 39.3783L113.786 14.7383L111.786 14.7517L111.951 39.3917L113.951 39.3783ZM112.786 15.745H117.186V13.745H112.786V15.745ZM116.186 14.7359L115.966 38.9909L117.966 39.0091L118.186 14.7541L116.186 14.7359ZM121.62 31.9117C126.518 38.2455 131.637 44.1943 136.98 49.7576L138.422 48.3724C133.131 42.8624 128.058 36.9678 123.202 30.6883L121.62 31.9117ZM136.706 48.9655L136.651 49.5155L138.641 49.7145L138.696 49.1645L136.706 48.9655ZM137.359 48.6572C136.317 48.9696 134.99 49.2544 133.367 49.5069L133.675 51.4831C135.352 51.2223 136.775 50.9204 137.933 50.5728L137.359 48.6572ZM133.968 49.6006L133.418 49.3256L132.524 51.1144L133.074 51.3894L133.968 49.6006ZM133.721 49.5582C127.944 43.0133 122.903 36.8036 118.598 30.9289L116.984 32.1111C121.332 38.043 126.412 44.3 132.221 50.8818L133.721 49.5582ZM118.791 31.52V31.19H116.791V31.52H118.791ZM118.541 31.8509L130.311 18.4859L128.811 17.1641L117.041 30.5291L118.541 31.8509ZM130.375 18.4062L132.575 15.3262L130.947 14.1638L128.747 17.2438L130.375 18.4062ZM131.761 15.745H136.711V13.745H131.761V15.745ZM135.954 14.0913L121.654 30.6463L123.168 31.9537L137.468 15.3987L135.954 14.0913ZM166.03 39.715L165.031 39.6928L165.03 39.7092L165.03 39.7257L166.03 39.715ZM166.14 50V51H167.151L167.14 49.9893L166.14 50ZM161.795 50L160.796 49.9786L160.774 51H161.795V50ZM162.015 39.715L163.015 39.7364L163.016 39.7138L163.015 39.6912L162.015 39.715ZM161.96 37.405L162.96 37.3812L162.955 37.1608L162.857 36.963L161.96 37.405ZM150.795 14.745V13.745H149.188L149.898 15.187L150.795 14.745ZM155.525 14.745L156.466 14.4054L156.227 13.745H155.525V14.745ZM156.24 16.725L155.3 17.0646L155.318 17.1145L155.341 17.1622L156.24 16.725ZM163.94 32.565L163.041 33.0022L163.315 33.565H163.94V32.565ZM164.325 32.565V33.565H164.923L165.206 33.0391L164.325 32.565ZM172.795 16.835L173.676 17.3091L173.704 17.2571L173.725 17.2022L172.795 16.835ZM173.62 14.745V13.745H172.94L172.69 14.3778L173.62 14.745ZM178.24 14.745L179.12 15.2204L179.917 13.745H178.24V14.745ZM166.085 37.24L165.206 36.7646L165.091 36.9767L165.086 37.2178L166.085 37.24ZM165.03 39.7257L165.14 50.0107L167.14 49.9893L167.03 39.7043L165.03 39.7257ZM166.14 49H161.795V51H166.14V49ZM162.795 50.0214L163.015 39.7364L161.016 39.6936L160.796 49.9786L162.795 50.0214ZM163.015 39.6912L162.96 37.3812L160.961 37.4288L161.016 39.7388L163.015 39.6912ZM162.857 36.963L151.692 14.303L149.898 15.187L161.063 37.847L162.857 36.963ZM150.795 15.745H155.525V13.745H150.795V15.745ZM154.585 15.0846L155.3 17.0646L157.181 16.3854L156.466 14.4054L154.585 15.0846ZM155.341 17.1622L163.041 33.0022L164.84 32.1278L157.14 16.2878L155.341 17.1622ZM163.94 33.565H164.325V31.565H163.94V33.565ZM165.206 33.0391L173.676 17.3091L171.915 16.3609L163.445 32.0909L165.206 33.0391ZM173.725 17.2022L174.55 15.1122L172.69 14.3778L171.865 16.4678L173.725 17.2022ZM173.62 15.745H178.24V13.745H173.62V15.745ZM177.361 14.2696L165.206 36.7646L166.965 37.7154L179.12 15.2204L177.361 14.2696ZM165.086 37.2178L165.031 39.6928L167.03 39.7372L167.085 37.2622L165.086 37.2178ZM204.483 18.87L203.726 19.5239L203.731 19.5292L204.483 18.87ZM204.263 45.6L205.024 46.2487L205.028 46.2444L204.263 45.6ZM181.438 45.82L180.67 46.4602L180.674 46.4655L181.438 45.82ZM181.658 19.145L180.904 18.4877L180.9 18.4928L181.658 19.145ZM184.738 43.345L183.929 43.9332L183.935 43.9411L184.738 43.345ZM201.128 21.565L200.324 22.1591L200.33 22.167L201.128 21.565ZM193.373 15.415C197.996 15.415 201.393 16.8238 203.726 19.5239L205.24 18.2161C202.44 14.9762 198.43 13.415 193.373 13.415V15.415ZM203.731 19.5292C206.12 22.254 207.388 26.2552 207.388 31.685H209.388C209.388 25.9681 208.053 21.426 205.235 18.2108L203.731 19.5292ZM207.388 31.685C207.388 37.5578 206.045 41.9341 203.498 44.9556L205.028 46.2444C207.982 42.7393 209.388 37.8389 209.388 31.685H207.388ZM203.502 44.9513C200.98 47.9099 197.362 49.44 192.493 49.44V51.44C197.818 51.44 202.046 49.7434 205.024 46.2487L203.502 44.9513ZM192.493 49.44C187.961 49.44 184.58 47.9881 182.202 45.1745L180.674 46.4655C183.503 49.8119 187.491 51.44 192.493 51.44V49.44ZM182.206 45.1798C179.841 42.3417 178.588 38.2205 178.588 32.675H176.588C176.588 38.4961 177.902 43.1383 180.67 46.4602L182.206 45.1798ZM178.588 32.675C178.588 26.9505 179.912 22.707 182.416 19.7972L180.9 18.4928C177.977 21.8897 176.588 26.6662 176.588 32.675H178.588ZM182.412 19.8023C184.932 16.912 188.536 15.415 193.373 15.415V13.415C188.09 13.415 183.884 15.0714 180.904 18.4877L182.412 19.8023ZM193.098 16.99C189.2 16.99 186.123 18.2603 184.058 20.9248C182.03 23.5411 181.098 27.3485 181.098 32.18H183.098C183.098 27.5515 184 24.2639 185.638 22.1502C187.24 20.0847 189.663 18.99 193.098 18.99V16.99ZM181.098 32.18C181.098 37.285 181.986 41.2609 183.929 43.9332L185.547 42.7568C183.97 40.5891 183.098 37.1217 183.098 32.18H181.098ZM183.935 43.9411C185.958 46.6657 188.982 47.975 192.823 47.975V45.975C189.478 45.975 187.111 44.8643 185.541 42.7489L183.935 43.9411ZM192.823 47.975C196.729 47.975 199.806 46.6768 201.869 43.9641C203.893 41.303 204.823 37.43 204.823 32.51H202.823C202.823 37.2333 201.92 40.5928 200.277 42.7534C198.673 44.8623 196.251 45.975 192.823 45.975V47.975ZM204.823 32.51C204.823 27.508 203.915 23.6001 201.927 20.963L200.33 22.167C201.935 24.2965 202.823 27.6854 202.823 32.51H204.823ZM201.932 20.971C199.943 18.2769 196.933 16.99 193.098 16.99V18.99C196.45 18.99 198.793 20.0865 200.324 22.159L201.932 20.971ZM239.065 32.675L240.065 32.6889L240.065 32.6781L239.065 32.675ZM239.01 36.635L238.01 36.6211L238.01 36.6365L238.01 36.6519L239.01 36.635ZM235.6 46.755L234.882 46.0589L234.882 46.0589L235.6 46.755ZM216.02 46.92L215.296 47.6097L215.302 47.6156L216.02 46.92ZM212.83 37.13L213.83 37.1474L213.83 37.1415L212.83 37.13ZM212.885 32.345L213.885 32.3565L213.885 32.3492L213.885 32.3419L212.885 32.345ZM212.83 14.745V13.745H211.827L211.83 14.7481L212.83 14.745ZM217.175 14.745L218.175 14.7526L218.183 13.745H217.175V14.745ZM217.01 36.58L218.01 36.5911L218.01 36.5876L217.01 36.58ZM219.21 44.06L218.464 44.7254L218.471 44.7335L219.21 44.06ZM232.685 44.17L233.401 44.8687L233.401 44.8687L232.685 44.17ZM234.94 37.13L233.94 37.1398L233.94 37.1418L234.94 37.13ZM234.72 14.745V13.745H233.71L233.72 14.7548L234.72 14.745ZM239.12 14.745L240.12 14.7481L240.123 13.745H239.12V14.745ZM238.065 32.6611L238.01 36.6211L240.01 36.6489L240.065 32.6889L238.065 32.6611ZM238.01 36.6519C238.08 40.7918 236.995 43.8797 234.882 46.0589L236.318 47.4511C238.898 44.7903 240.087 41.1315 240.01 36.6181L238.01 36.6519ZM234.882 46.0589C232.774 48.2335 229.727 49.385 225.59 49.385V51.385C230.107 51.385 233.733 50.1165 236.318 47.4511L234.882 46.0589ZM225.59 49.385C221.635 49.385 218.736 48.2878 216.739 46.2244L215.302 47.6156C217.777 50.1722 221.258 51.385 225.59 51.385V49.385ZM216.744 46.2303C214.778 44.1658 213.76 41.1888 213.83 37.1474L211.83 37.1126C211.754 41.5045 212.862 45.0542 215.296 47.6097L216.744 46.2303ZM213.83 37.1415L213.885 32.3565L211.885 32.3335L211.83 37.1185L213.83 37.1415ZM213.885 32.3419L213.83 14.7419L211.83 14.7481L211.885 32.3481L213.885 32.3419ZM212.83 15.745H217.175V13.745H212.83V15.745ZM216.175 14.7374L216.01 36.5724L218.01 36.5876L218.175 14.7526L216.175 14.7374ZM216.01 36.5689C215.972 40.005 216.732 42.7827 218.464 44.7254L219.957 43.3946C218.682 41.964 217.975 39.755 218.01 36.5911L216.01 36.5689ZM218.471 44.7335C220.221 46.6541 222.766 47.535 225.92 47.535V45.535C223.134 45.535 221.206 44.7659 219.949 43.3865L218.471 44.7335ZM225.92 47.535C229.063 47.535 231.614 46.6977 233.401 44.8687L231.97 43.4713C230.676 44.7956 228.718 45.535 225.92 45.535V47.535ZM233.401 44.8687C235.191 43.0354 235.979 40.389 235.94 37.1182L233.94 37.1418C233.975 40.1043 233.259 42.1512 231.97 43.4713L233.401 44.8687ZM235.94 37.1202L235.72 14.7352L233.72 14.7548L233.94 37.1398L235.94 37.1202ZM234.72 15.745H239.12V13.745H234.72V15.745ZM238.12 14.7419L238.065 32.6719L240.065 32.6781L240.12 14.7481L238.12 14.7419ZM261.009 35.755L260.591 34.8466L259.573 35.3149L260.153 36.273L261.009 35.755ZM270.139 48.955L271.134 49.0545L271.173 48.6619L270.934 48.3482L270.139 48.955ZM270.084 49.505L270.446 50.437L271.018 50.2147L271.079 49.6045L270.084 49.505ZM266.014 50.495L265.477 51.3387L265.771 51.526L266.119 51.4895L266.014 50.495ZM265.409 50.11L264.577 50.6647L264.694 50.8403L264.872 50.9537L265.409 50.11ZM257.324 36.91L258.198 36.4244L257.912 35.91H257.324V36.91ZM250.889 36.91V35.91H249.889V36.91H250.889ZM250.889 39H249.889V39.01L249.889 39.02L250.889 39ZM251.109 50V51H252.129L252.109 49.98L251.109 50ZM246.654 50L245.654 49.9741L245.628 51H246.654V50ZM246.929 39.385L247.929 39.4109L247.929 39.3924L247.929 39.3738L246.929 39.385ZM246.654 14.745L246.649 13.745L245.643 13.7501L245.654 14.7562L246.654 14.745ZM257.434 14.69V13.69L257.429 13.69L257.434 14.69ZM265.409 17.33L264.724 18.0582L264.731 18.0651L264.738 18.0719L265.409 17.33ZM266.344 31.3L265.509 30.7489L265.507 30.7528L266.344 31.3ZM250.944 33.17L249.944 33.1588L249.933 34.145L250.919 34.1697L250.944 33.17ZM257.544 33.335L257.519 34.3347L257.672 34.3385L257.819 34.2965L257.544 33.335ZM261.889 20.135L261.204 20.8638L261.21 20.8694L261.216 20.8749L261.889 20.135ZM256.444 18.32L256.474 17.3205L256.444 17.3195L256.413 17.3205L256.444 18.32ZM251.109 18.485L251.078 17.4855L250.12 17.5151L250.109 18.4738L251.109 18.485ZM260.153 36.273C262.596 40.3077 265.662 44.7377 269.344 49.5618L270.934 48.3482C267.283 43.5656 264.261 39.1957 261.864 35.237L260.153 36.273ZM269.144 48.8555L269.089 49.4055L271.079 49.6045L271.134 49.0545L269.144 48.8555ZM269.721 48.573C268.483 49.0545 267.213 49.3632 265.909 49.5005L266.119 51.4895C267.601 51.3334 269.044 50.9822 270.446 50.437L269.721 48.573ZM266.551 49.6513L265.946 49.2663L264.872 50.9537L265.477 51.3387L266.551 49.6513ZM266.241 49.5553C263.248 45.0655 260.567 40.6885 258.198 36.4244L256.45 37.3956C258.847 41.7115 261.557 46.1345 264.577 50.6647L266.241 49.5553ZM257.324 35.91H250.889V37.91H257.324V35.91ZM249.889 36.91V39H251.889V36.91H249.889ZM249.889 39.02L250.109 50.02L252.109 49.98L251.889 38.98L249.889 39.02ZM251.109 49H246.654V51H251.109V49ZM247.654 50.0259L247.929 39.4109L245.929 39.3591L245.654 49.9741L247.654 50.0259ZM247.929 39.3738L247.654 14.7338L245.654 14.7562L245.929 39.3962L247.929 39.3738ZM246.659 15.745L257.439 15.69L257.429 13.69L246.649 13.745L246.659 15.745ZM257.434 15.69C260.715 15.69 263.095 16.5255 264.724 18.0582L266.094 16.6018C263.983 14.6145 261.046 13.69 257.434 13.69V15.69ZM264.738 18.0719C266.384 19.5592 267.269 21.7336 267.269 24.755H269.269C269.269 21.323 268.247 18.5474 266.079 16.5881L264.738 18.0719ZM267.269 24.755C267.269 26.9872 266.68 28.9757 265.509 30.7489L267.178 31.8511C268.574 29.7376 269.269 27.3628 269.269 24.755H267.269ZM265.507 30.7528C264.375 32.4842 262.75 33.8525 260.591 34.8466L261.427 36.6634C263.887 35.5309 265.82 33.9291 267.181 31.8472L265.507 30.7528ZM250.919 34.1697L257.519 34.3347L257.569 32.3353L250.969 32.1703L250.919 34.1697ZM257.819 34.2965C260.028 33.6652 261.776 32.5867 262.963 31.0071C264.15 29.428 264.704 27.4456 264.704 25.14H262.704C262.704 27.1244 262.231 28.6529 261.365 29.8054C260.498 30.9575 259.166 31.8315 257.269 32.3735L257.819 34.2965ZM264.704 25.14C264.704 22.7293 264.048 20.7466 262.562 19.3951L261.216 20.8749C262.15 21.7234 262.704 23.0774 262.704 25.14H264.704ZM262.574 19.4061C261.119 18.0401 259.028 17.3979 256.474 17.3205L256.414 19.3195C258.699 19.3888 260.238 19.9565 261.204 20.8638L262.574 19.4061ZM256.413 17.3205L251.078 17.4855L251.14 19.4845L256.475 19.3195L256.413 17.3205ZM250.109 18.4738L249.944 33.1588L251.944 33.1812L252.109 18.4962L250.109 18.4738ZM292.947 16.12L293.933 16.2865L294.066 15.4949L293.322 15.1933L292.947 16.12ZM292.232 20.355L292.506 21.3165L293.113 21.1433L293.218 20.5215L292.232 20.355ZM291.462 20.575L290.857 21.3717L291.256 21.6739L291.736 21.5365L291.462 20.575ZM288.052 18.705L287.701 19.6414L287.71 19.6448L288.052 18.705ZM280.957 18.87L280.484 17.9885L280.478 17.9921L280.471 17.9958L280.957 18.87ZM278.647 21.015L277.799 20.485L277.791 20.4979L277.783 20.5111L278.647 21.015ZM278.757 26.405L277.961 27.011L277.977 27.0323L277.995 27.0526L278.757 26.405ZM281.067 28.33L281.581 27.4725L281.581 27.4725L281.067 28.33ZM284.807 30.31L284.368 31.2086L284.377 31.2131L284.387 31.2175L284.807 30.31ZM289.592 32.895L289.037 33.727L289.046 33.7329L289.055 33.7387L289.592 32.895ZM292.672 35.865L291.851 36.4368L291.857 36.445L291.863 36.4532L292.672 35.865ZM292.507 45.325L291.665 44.7842L291.665 44.7842L292.507 45.325ZM288.327 49.01L287.872 48.1192L287.872 48.1192L288.327 49.01ZM277.327 49.78L277.069 50.7462L277.082 50.7496L277.094 50.7526L277.327 49.78ZM272.707 47.91L271.714 47.7889L271.633 48.4525L272.215 48.781L272.707 47.91ZM273.257 43.4L272.843 42.4896L272.332 42.7219L272.264 43.2789L273.257 43.4ZM273.862 43.125L274.558 42.4077L274.069 41.9323L273.448 42.2146L273.862 43.125ZM278.097 45.93L277.721 46.8569L277.735 46.8623L277.748 46.8672L278.097 45.93ZM286.292 45.985L285.844 45.0905L285.832 45.0968L286.292 45.985ZM288.767 43.785L287.924 43.2459L287.917 43.2581L287.909 43.2705L288.767 43.785ZM287.887 37.185L287.256 37.9611L287.263 37.9671L287.271 37.973L287.887 37.185ZM282.552 34.105L282.111 35.0028L282.122 35.008L282.133 35.013L282.552 34.105ZM277.877 31.575L277.328 32.411L277.337 32.4171L277.347 32.423L277.877 31.575ZM274.852 28.66L274.031 29.2318L274.035 29.2377L274.04 29.2436L274.852 28.66ZM275.017 19.31L274.181 18.76L274.177 18.7672L274.172 18.7745L275.017 19.31ZM279.087 15.79L279.526 16.6882L279.534 16.6844L279.087 15.79ZM285.082 15.47C287.464 15.47 289.958 15.9876 292.571 17.0467L293.322 15.1933C290.508 14.0524 287.759 13.47 285.082 13.47V15.47ZM291.961 15.9535L291.246 20.1885L293.218 20.5215L293.933 16.2865L291.961 15.9535ZM291.957 19.3935L291.187 19.6135L291.736 21.5365L292.506 21.3165L291.957 19.3935ZM292.066 19.7783C290.926 18.9133 289.701 18.2407 288.393 17.7652L287.71 19.6448C288.822 20.0493 289.871 20.6234 290.857 21.3717L292.066 19.7783ZM288.403 17.7687C287.125 17.2894 285.833 17.045 284.532 17.045V19.045C285.577 19.045 286.632 19.2405 287.701 19.6413L288.403 17.7687ZM284.532 17.045C283.037 17.045 281.679 17.3488 280.484 17.9885L281.429 19.7515C282.288 19.2912 283.313 19.045 284.532 19.045V17.045ZM280.471 17.9958C279.347 18.6203 278.446 19.4486 277.799 20.485L279.495 21.545C279.947 20.8214 280.586 20.2197 281.442 19.7442L280.471 17.9958ZM277.783 20.5111C277.187 21.5332 276.877 22.6224 276.877 23.765H278.877C278.877 23.0009 279.08 22.2568 279.51 21.5189L277.783 20.5111ZM276.877 23.765C276.877 24.9686 277.239 26.0627 277.961 27.011L279.552 25.799C279.101 25.2073 278.877 24.5414 278.877 23.765H276.877ZM277.995 27.0526C278.696 27.8776 279.552 28.5876 280.552 29.1875L281.581 27.4725C280.748 26.9724 280.064 26.3991 279.519 25.7574L277.995 27.0526ZM280.552 29.1875C281.504 29.7586 282.779 30.4328 284.368 31.2086L285.246 29.4114C283.681 28.6472 282.463 28.0014 281.581 27.4725L280.552 29.1875ZM284.387 31.2175C286.34 32.1221 287.885 32.9593 289.037 33.727L290.146 32.0629C288.878 31.2174 287.233 30.3313 285.227 29.4025L284.387 31.2175ZM289.055 33.7387C290.15 34.4356 291.081 35.3321 291.851 36.4368L293.492 35.2932C292.575 33.9779 291.453 32.8944 290.129 32.0513L289.055 33.7387ZM291.863 36.4532C292.6 37.4672 292.992 38.7197 292.992 40.265H294.992C294.992 38.3636 294.503 36.6828 293.48 35.2768L291.863 36.4532ZM292.992 40.265C292.992 41.9069 292.552 43.4058 291.665 44.7842L293.348 45.8658C294.442 44.1642 294.992 42.2898 294.992 40.265H292.992ZM291.665 44.7842C290.781 46.1606 289.528 47.2746 287.872 48.1192L288.781 49.9008C290.719 48.9121 292.253 47.5694 293.348 45.8658L291.665 44.7842ZM287.872 48.1192C286.235 48.9543 284.342 49.385 282.167 49.385V51.385C284.612 51.385 286.825 50.899 288.781 49.9008L287.872 48.1192ZM282.167 49.385C280.714 49.385 279.179 49.1948 277.559 48.8074L277.094 50.7526C278.848 51.1719 280.539 51.385 282.167 51.385V49.385ZM277.584 48.8138C276.013 48.3946 274.552 47.8026 273.198 47.039L272.215 48.781C273.722 49.6308 275.341 50.2854 277.069 50.7462L277.584 48.8138ZM273.699 48.0311L274.249 43.5211L272.264 43.2789L271.714 47.7889L273.699 48.0311ZM273.67 44.3104L274.275 44.0354L273.448 42.2146L272.843 42.4896L273.67 44.3104ZM273.165 43.8423C274.534 45.172 276.053 46.1815 277.721 46.8569L278.472 45.0031C277.061 44.4318 275.756 43.5714 274.558 42.4077L273.165 43.8423ZM277.748 46.8672C279.417 47.4882 281.039 47.81 282.607 47.81V45.81C281.315 45.81 279.93 45.5451 278.445 44.9928L277.748 46.8672ZM282.607 47.81C284.134 47.81 285.524 47.5078 286.751 46.8732L285.832 45.0968C284.933 45.5622 283.866 45.81 282.607 45.81V47.81ZM286.739 46.8794C287.983 46.2575 288.962 45.4027 289.624 44.2995L287.909 43.2705C287.471 44.0007 286.801 44.6125 285.844 45.0906L286.739 46.8794ZM289.609 44.3241C290.292 43.2566 290.647 42.0994 290.647 40.87H288.647C288.647 41.6939 288.415 42.4801 287.924 43.2459L289.609 44.3241ZM290.647 40.87C290.647 39.0345 289.928 37.5106 288.502 36.397L287.271 37.973C288.192 38.6927 288.647 39.6255 288.647 40.87H290.647ZM288.517 36.4089C287.249 35.3782 285.383 34.3104 282.971 33.197L282.133 35.013C284.487 36.0996 286.178 37.0852 287.256 37.9611L288.517 36.4089ZM282.992 33.2072C281.064 32.2616 279.54 31.4351 278.407 30.727L277.347 32.423C278.56 33.1816 280.152 34.0418 282.111 35.0028L282.992 33.2072ZM278.425 30.739C277.358 30.0382 276.438 29.1531 275.664 28.0764L274.04 29.2436C274.952 30.5135 276.049 31.5718 277.328 32.411L278.425 30.739ZM275.672 28.0882C274.964 27.0728 274.587 25.8143 274.587 24.26H272.587C272.587 26.1524 273.052 27.8272 274.031 29.2318L275.672 28.0882ZM274.587 24.26C274.587 22.6511 275.01 21.1871 275.861 19.8455L274.172 18.7745C273.116 20.4395 272.587 22.2756 272.587 24.26H274.587ZM275.852 19.86C276.737 18.5159 277.953 17.4583 279.526 16.6882L278.647 14.8918C276.774 15.8083 275.276 17.0974 274.181 18.76L275.852 19.86ZM279.534 16.6844C281.137 15.8828 282.979 15.47 285.082 15.47V13.47C282.711 13.47 280.556 13.9372 278.639 14.8956L279.534 16.6844ZM319.934 46.59L320.929 46.6863L320.962 46.3481L320.782 46.06L319.934 46.59ZM319.604 50V51H320.512L320.599 50.0963L319.604 50ZM299.804 50L298.804 49.9741L298.778 51H299.804V50ZM300.079 39.385L301.079 39.4109L301.079 39.3924L301.079 39.3738L300.079 39.385ZM299.804 14.745V13.745H298.793L298.804 14.7562L299.804 14.745ZM319.659 14.745L320.553 14.2978L320.277 13.745H319.659V14.745ZM319.879 15.185L320.874 15.2813L320.902 14.995L320.773 14.7378L319.879 15.185ZM319.549 18.595L319.529 19.5948L320.455 19.6132L320.544 18.6913L319.549 18.595ZM311.244 18.43L311.264 17.4302L311.246 17.4298L311.228 17.4301L311.244 18.43ZM304.259 18.54L304.243 17.5401L303.268 17.5555L303.259 18.5305L304.259 18.54ZM304.149 30.09L303.149 30.0805L303.14 31.0733L304.132 31.0899L304.149 30.09ZM310.749 30.2L310.732 31.1999L310.755 31.2002L310.777 31.1996L310.749 30.2ZM316.579 30.035L317.338 29.3842L317.028 29.0219L316.551 29.0354L316.579 30.035ZM316.909 30.42L317.903 30.5322L317.952 30.0997L317.668 29.7692L316.909 30.42ZM316.524 33.83L316.506 34.8298L317.416 34.8461L317.518 33.9422L316.524 33.83ZM310.364 33.72L310.382 32.7202L310.369 32.7199L310.355 32.72L310.364 33.72ZM304.094 33.775L304.085 32.775L303.104 32.7836L303.094 33.7645L304.094 33.775ZM304.039 39L303.039 38.9895L303.039 39.006L303.039 39.0226L304.039 39ZM304.204 46.315L303.204 46.3376L303.226 47.3073L304.196 47.315L304.204 46.315ZM311.189 46.37L311.181 47.37L311.198 47.3701L311.215 47.3697L311.189 46.37ZM319.659 46.15L320.507 45.62L320.204 45.1355L319.633 45.1503L319.659 46.15ZM318.939 46.4937L318.609 49.9037L320.599 50.0963L320.929 46.6863L318.939 46.4937ZM319.604 49H299.804V51H319.604V49ZM300.804 50.0259L301.079 39.4109L299.079 39.3591L298.804 49.9741L300.804 50.0259ZM301.079 39.3738L300.804 14.7338L298.804 14.7562L299.079 39.3962L301.079 39.3738ZM299.804 15.745H319.659V13.745H299.804V15.745ZM318.765 15.1922L318.985 15.6322L320.773 14.7378L320.553 14.2978L318.765 15.1922ZM318.884 15.0887L318.554 18.4987L320.544 18.6913L320.874 15.2813L318.884 15.0887ZM319.569 17.5952L311.264 17.4302L311.224 19.4298L319.529 19.5948L319.569 17.5952ZM311.228 17.4301L304.243 17.5401L304.275 19.5399L311.26 19.4299L311.228 17.4301ZM303.259 18.5305L303.149 30.0805L305.149 30.0995L305.259 18.5495L303.259 18.5305ZM304.132 31.0899L310.732 31.1999L310.766 29.2001L304.166 29.0901L304.132 31.0899ZM310.777 31.1996L316.607 31.0346L316.551 29.0354L310.721 29.2004L310.777 31.1996ZM315.82 30.6858L316.15 31.0708L317.668 29.7692L317.338 29.3842L315.82 30.6858ZM315.915 30.3078L315.53 33.7178L317.518 33.9422L317.903 30.5322L315.915 30.3078ZM316.542 32.8302L310.382 32.7202L310.346 34.7198L316.506 34.8298L316.542 32.8302ZM310.355 32.72L304.085 32.775L304.103 34.775L310.373 34.72L310.355 32.72ZM303.094 33.7645L303.039 38.9895L305.039 39.0105L305.094 33.7855L303.094 33.7645ZM303.039 39.0226L303.204 46.3376L305.204 46.2924L305.039 38.9774L303.039 39.0226ZM304.196 47.315L311.181 47.37L311.197 45.37L304.212 45.315L304.196 47.315ZM311.215 47.3697L319.685 47.1497L319.633 45.1503L311.163 45.3703L311.215 47.3697ZM318.811 46.68L319.086 47.12L320.782 46.06L320.507 45.62L318.811 46.68ZM342.287 46.7L343.281 46.8159L343.331 46.3814L343.047 46.0492L342.287 46.7ZM341.902 50V51H342.792L342.896 50.1159L341.902 50ZM324.522 50L323.523 49.9741L323.496 51H324.522V50ZM324.797 39.385L325.797 39.4109L325.797 39.3924L325.797 39.3738L324.797 39.385ZM324.522 14.745V13.745H323.511L323.522 14.7562L324.522 14.745ZM329.032 14.745L330.032 14.7563L330.044 13.745H329.032V14.745ZM328.757 39L327.757 38.9887L327.757 39.0056L327.758 39.0226L328.757 39ZM328.922 46.315L327.923 46.3376L327.945 47.315H328.922V46.315ZM341.957 46.315L342.717 45.6642L342.417 45.315H341.957V46.315ZM341.294 46.5841L340.909 49.8841L342.896 50.1159L343.281 46.8159L341.294 46.5841ZM341.902 49H324.522V51H341.902V49ZM325.522 50.0259L325.797 39.4109L323.798 39.3591L323.523 49.9741L325.522 50.0259ZM325.797 39.3738L325.522 14.7338L323.522 14.7562L323.797 39.3962L325.797 39.3738ZM324.522 15.745H329.032V13.745H324.522V15.745ZM328.032 14.7337L327.757 38.9887L329.757 39.0113L330.032 14.7563L328.032 14.7337ZM327.758 39.0226L327.923 46.3376L329.922 46.2924L329.757 38.9774L327.758 39.0226ZM328.922 47.315H341.957V45.315H328.922V47.315ZM341.198 46.9658L341.528 47.3508L343.047 46.0492L342.717 45.6642L341.198 46.9658ZM350.373 18.54L350.355 17.5402L349.382 17.5575L349.373 18.531L350.373 18.54ZM350.263 30.805L349.263 30.796L349.254 31.7865L350.245 31.8048L350.263 30.805ZM356.203 30.915L356.185 31.9148L356.208 31.9153L356.232 31.9146L356.203 30.915ZM361.923 30.75L362.723 30.15L362.412 29.7355L361.894 29.7504L361.923 30.75ZM362.253 31.19L363.247 31.304L363.292 30.9085L363.053 30.59L362.253 31.19ZM361.868 34.545L361.841 35.5446L362.757 35.5694L362.862 34.659L361.868 34.545ZM355.763 34.38L355.79 33.3804L355.772 33.3799L355.753 33.38L355.763 34.38ZM350.208 34.435L350.198 33.435L349.22 33.4447L349.208 34.423L350.208 34.435ZM350.153 39L349.153 38.988L349.153 39.004L349.153 39.02L350.153 39ZM350.373 50V51H351.393L351.373 49.98L350.373 50ZM345.918 50L344.918 49.9741L344.892 51H345.918V50ZM346.193 39.385L347.193 39.4109L347.193 39.3924L347.193 39.3738L346.193 39.385ZM345.918 14.745V13.745H344.907L344.918 14.7562L345.918 14.745ZM364.673 14.745L365.473 14.145L365.173 13.745H364.673V14.745ZM365.003 15.185L365.997 15.2937L366.04 14.901L365.803 14.585L365.003 15.185ZM364.618 18.705L364.584 19.7044L365.511 19.736L365.612 18.8137L364.618 18.705ZM356.533 18.43L356.567 17.4306L356.541 17.4297L356.515 17.4302L356.533 18.43ZM349.373 18.531L349.263 30.796L351.263 30.814L351.373 18.549L349.373 18.531ZM350.245 31.8048L356.185 31.9148L356.222 29.9152L350.282 29.8052L350.245 31.8048ZM356.232 31.9146L361.952 31.7496L361.894 29.7504L356.174 29.9154L356.232 31.9146ZM361.123 31.35L361.453 31.79L363.053 30.59L362.723 30.15L361.123 31.35ZM361.26 31.076L360.875 34.431L362.862 34.659L363.247 31.304L361.26 31.076ZM361.895 33.5454L355.79 33.3804L355.736 35.3796L361.841 35.5446L361.895 33.5454ZM355.753 33.38L350.198 33.435L350.218 35.4349L355.773 35.38L355.753 33.38ZM349.208 34.423L349.153 38.988L351.153 39.012L351.208 34.447L349.208 34.423ZM349.153 39.02L349.373 50.02L351.373 49.98L351.153 38.98L349.153 39.02ZM350.373 49H345.918V51H350.373V49ZM346.918 50.0259L347.193 39.4109L345.193 39.3591L344.918 49.9741L346.918 50.0259ZM347.193 39.3738L346.918 14.7338L344.918 14.7562L345.193 39.3962L347.193 39.3738ZM345.918 15.745H364.673V13.745H345.918V15.745ZM363.873 15.345L364.203 15.785L365.803 14.585L365.473 14.145L363.873 15.345ZM364.009 15.0763L363.624 18.5963L365.612 18.8137L365.997 15.2937L364.009 15.0763ZM364.652 17.7056L356.567 17.4306L356.499 19.4294L364.584 19.7044L364.652 17.7056ZM356.515 17.4302L350.355 17.5402L350.391 19.5398L356.551 19.4298L356.515 17.4302Z" fill="#FFFFEB"/>
<path d="M49.3109 73.0352L48.8617 75.2812H44.8578L42.5141 87H39.9262L42.2699 75.2812H38.266L38.7152 73.0352H49.3109ZM47.5926 87L50.3856 73.0352H52.9734L51.8211 78.7969H58.7059L59.8582 73.0352H62.4461L59.6531 87H57.0652L58.2566 81.043H51.3719L50.1805 87H47.5926ZM67.5734 73.0352L64.7805 87H62.1926L64.9856 73.0352H67.5734ZM67.3199 87L70.1129 73.0352H72.7008L78.0816 83.0156L80.0738 73.0352H82.5641L79.7711 87H77.1832L71.8512 76.8047L69.8102 87H67.3199ZM87.6914 73.0352L84.8984 87H82.3106L85.1035 73.0352H87.6914ZM97.125 73.0352L89.3809 79.8125L95.0547 87H91.666L86.9883 80.4766L87.3203 78.7969L93.8633 73.0352H97.125ZM98.6488 84.6074L98.1703 87H95.5824L96.0609 84.6074H98.6488ZM114.129 84.7539C117.026 84.7539 118.816 83.0482 119.5 79.6367C120.079 76.7331 118.92 75.2812 116.023 75.2812H113.142L111.248 84.7539H114.129ZM108.211 87L111.004 73.0352H116.472C121.095 73.0352 122.966 75.2357 122.088 79.6367C121.104 84.5456 118.302 87 113.679 87H108.211ZM134.773 73.0352L134.324 75.2617H127.332L126.629 78.7773H133.289L132.83 81.0918H126.141L125.408 84.7539H132.566L132.117 87H122.42L125.213 73.0352H134.773ZM150.204 73.0352L141.288 87H138.504L135.438 73.0352H138.416L140.604 83.7285L147.059 73.0352H150.204ZM160.829 73.0352L160.38 75.2617H153.388L152.684 78.7773H159.345L158.886 81.0918H152.196L151.464 84.7539H158.622L158.173 87H148.475L151.268 73.0352H160.829ZM165.546 73.0352L163.202 84.7539H168.749L168.3 87H160.165L162.958 73.0352H165.546ZM173.955 79.9785C173.304 83.2272 174.42 84.8516 177.304 84.8516C180.117 84.8516 181.849 83.2272 182.5 79.9785C183.138 76.7819 182.05 75.1836 179.238 75.1836C176.354 75.1836 174.593 76.7819 173.955 79.9785ZM171.259 80.0371C172.203 75.304 175.013 72.9375 179.687 72.9375C184.29 72.9375 186.119 75.304 185.175 80.0371C184.231 84.7441 181.458 87.0977 176.855 87.0977C172.389 87.0977 170.524 84.7441 171.259 80.0371ZM185.83 87L188.623 73.0352H194.873C197.725 73.0352 198.887 74.347 198.359 76.9707C197.793 79.8158 195.501 81.5378 191.484 82.1367L191.572 79.832C194.001 79.4089 195.358 78.4811 195.645 77.0488C195.872 75.89 195.407 75.3105 194.248 75.3105H190.752L188.418 87H185.83ZM200.254 84.6074L199.776 87H197.188L197.666 84.6074H200.254ZM218.175 73.0352L217.726 75.2617H210.734L210.03 78.7773H216.691L216.232 81.0918H209.542L208.81 84.7539H215.968L215.519 87H205.821L208.614 73.0352H218.175ZM219.045 87H216.291L225.011 73.0352H227.795L231.056 87H228.371L227.541 83.1914H222.902L224.24 80.9453H227.052L225.9 75.7012L219.045 87ZM244.289 73.0352L243.84 75.2812H239.836L237.492 87H234.904L237.248 75.2812H233.244L233.693 73.0352H244.289ZM261.81 86.4141C260.514 86.8698 259.101 87.0977 257.571 87.0977C252.558 87.0977 250.537 84.6725 251.507 79.8223C252.425 75.2324 255.39 72.9375 260.404 72.9375C261.933 72.9375 263.255 73.1654 264.368 73.6211L263.9 75.9648C262.799 75.444 261.549 75.1836 260.15 75.1836C256.797 75.1836 254.811 76.7298 254.193 79.8223C253.522 83.1751 254.863 84.8516 258.216 84.8516C259.616 84.8516 260.97 84.5911 262.279 84.0703L261.81 86.4141ZM267.338 79.9785C266.686 83.2272 267.803 84.8516 270.687 84.8516C273.5 84.8516 275.231 83.2272 275.882 79.9785C276.52 76.7819 275.433 75.1836 272.621 75.1836C269.737 75.1836 267.976 76.7819 267.338 79.9785ZM264.642 80.0371C265.586 75.304 268.395 72.9375 273.07 72.9375C277.673 72.9375 279.502 75.304 278.558 80.0371C277.614 84.7441 274.841 87.0977 270.238 87.0977C265.772 87.0977 263.907 84.7441 264.642 80.0371ZM282.816 79.9785C282.165 83.2272 283.282 84.8516 286.166 84.8516C288.979 84.8516 290.71 83.2272 291.361 79.9785C291.999 76.7819 290.912 75.1836 288.1 75.1836C285.215 75.1836 283.454 76.7819 282.816 79.9785ZM280.121 80.0371C281.065 75.304 283.874 72.9375 288.549 72.9375C293.152 72.9375 294.981 75.304 294.037 80.0371C293.093 84.7441 290.32 87.0977 285.717 87.0977C281.251 87.0977 279.385 84.7441 280.121 80.0371ZM300.073 73.0352L297.28 87H294.692L297.485 73.0352H300.073ZM309.506 73.0352L301.762 79.8125L307.436 87H304.047L299.37 80.4766L299.702 78.7969L306.245 73.0352H309.506ZM313.833 73.0352L311.04 87H308.452L311.245 73.0352H313.833ZM325.933 73.0352L325.484 75.2617H318.491L317.788 78.7773H324.448L323.989 81.0918H317.3L316.568 84.7539H323.726L323.277 87H313.579L316.372 73.0352H325.933ZM325.142 86.4141L325.611 84.0703C326.907 84.5911 328.436 84.8516 330.201 84.8516C332.343 84.8516 333.557 84.1354 333.843 82.7031C334.052 81.6615 333.498 81.1406 332.183 81.1406H329.996C327.138 81.1406 325.969 79.8385 326.49 77.2344C327.063 74.3698 329.384 72.9375 333.453 72.9375C335.015 72.9375 336.451 73.1654 337.759 73.6211L337.291 75.9648C335.995 75.444 334.566 75.1836 333.004 75.1836C330.66 75.1836 329.351 75.8672 329.078 77.2344C328.869 78.276 329.332 78.7969 330.464 78.7969H332.652C335.692 78.7969 336.952 80.099 336.431 82.7031C335.845 85.6328 333.619 87.0977 329.752 87.0977C327.987 87.0977 326.451 86.8698 325.142 86.4141Z" fill="#1A0D0D"/>
</svg>
